<svg width="280" height="200" viewBox="0 0 280 200" fill="none" xmlns="http://www.w3.org/2000/svg">
<rect width="280" height="200" fill="#D9D9D9"/>
<path d="M115.547 96.5781C117.021 96.5781 118.096 96.8672 118.773 97.4453C119.456 98.0182 119.797 98.8411 119.797 99.9141C119.797 100.398 119.716 100.859 119.555 101.297C119.398 101.729 119.143 102.112 118.789 102.445C118.435 102.773 117.969 103.034 117.391 103.227C116.818 103.414 116.115 103.508 115.281 103.508H113.891V108H112.562V96.5781H115.547ZM115.422 97.7109H113.891V102.367H115.133C115.862 102.367 116.469 102.289 116.953 102.133C117.443 101.977 117.81 101.724 118.055 101.375C118.299 101.021 118.422 100.552 118.422 99.9688C118.422 99.2083 118.18 98.6432 117.695 98.2734C117.211 97.8984 116.453 97.7109 115.422 97.7109ZM123.289 95.8438V99.4766C123.289 99.6849 123.284 99.8958 123.273 100.109C123.263 100.318 123.245 100.51 123.219 100.688H123.305C123.482 100.385 123.706 100.133 123.977 99.9297C124.253 99.7214 124.565 99.5651 124.914 99.4609C125.263 99.3516 125.633 99.2969 126.023 99.2969C126.711 99.2969 127.284 99.4062 127.742 99.625C128.206 99.8438 128.552 100.182 128.781 100.641C129.016 101.099 129.133 101.693 129.133 102.422V108H127.852V102.508C127.852 101.794 127.688 101.26 127.359 100.906C127.036 100.552 126.539 100.375 125.867 100.375C125.232 100.375 124.724 100.497 124.344 100.742C123.969 100.982 123.698 101.336 123.531 101.805C123.37 102.273 123.289 102.846 123.289 103.523V108H121.992V95.8438H123.289ZM139.188 103.703C139.188 104.406 139.096 105.034 138.914 105.586C138.732 106.138 138.469 106.604 138.125 106.984C137.781 107.365 137.365 107.656 136.875 107.859C136.391 108.057 135.841 108.156 135.227 108.156C134.654 108.156 134.128 108.057 133.648 107.859C133.174 107.656 132.763 107.365 132.414 106.984C132.07 106.604 131.802 106.138 131.609 105.586C131.422 105.034 131.328 104.406 131.328 103.703C131.328 102.766 131.487 101.969 131.805 101.312C132.122 100.651 132.576 100.148 133.164 99.8047C133.758 99.4557 134.464 99.2812 135.281 99.2812C136.062 99.2812 136.745 99.4557 137.328 99.8047C137.917 100.154 138.372 100.659 138.695 101.32C139.023 101.977 139.188 102.771 139.188 103.703ZM132.672 103.703C132.672 104.391 132.763 104.987 132.945 105.492C133.128 105.997 133.409 106.388 133.789 106.664C134.169 106.94 134.659 107.078 135.258 107.078C135.852 107.078 136.339 106.94 136.719 106.664C137.104 106.388 137.388 105.997 137.57 105.492C137.753 104.987 137.844 104.391 137.844 103.703C137.844 103.021 137.753 102.432 137.57 101.938C137.388 101.438 137.107 101.052 136.727 100.781C136.346 100.51 135.854 100.375 135.25 100.375C134.359 100.375 133.706 100.669 133.289 101.258C132.878 101.846 132.672 102.661 132.672 103.703ZM144.195 107.094C144.409 107.094 144.628 107.076 144.852 107.039C145.076 107.003 145.258 106.958 145.398 106.906V107.914C145.247 107.982 145.036 108.039 144.766 108.086C144.5 108.133 144.24 108.156 143.984 108.156C143.531 108.156 143.12 108.078 142.75 107.922C142.38 107.76 142.083 107.49 141.859 107.109C141.641 106.729 141.531 106.203 141.531 105.531V100.453H140.312V99.8203L141.539 99.3125L142.055 97.4531H142.836V99.4375H145.344V100.453H142.836V105.492C142.836 106.029 142.958 106.43 143.203 106.695C143.453 106.961 143.784 107.094 144.195 107.094ZM154.516 103.703C154.516 104.406 154.424 105.034 154.242 105.586C154.06 106.138 153.797 106.604 153.453 106.984C153.109 107.365 152.693 107.656 152.203 107.859C151.719 108.057 151.169 108.156 150.555 108.156C149.982 108.156 149.456 108.057 148.977 107.859C148.503 107.656 148.091 107.365 147.742 106.984C147.398 106.604 147.13 106.138 146.938 105.586C146.75 105.034 146.656 104.406 146.656 103.703C146.656 102.766 146.815 101.969 147.133 101.312C147.451 100.651 147.904 100.148 148.492 99.8047C149.086 99.4557 149.792 99.2812 150.609 99.2812C151.391 99.2812 152.073 99.4557 152.656 99.8047C153.245 100.154 153.701 100.659 154.023 101.32C154.352 101.977 154.516 102.771 154.516 103.703ZM148 103.703C148 104.391 148.091 104.987 148.273 105.492C148.456 105.997 148.737 106.388 149.117 106.664C149.497 106.94 149.987 107.078 150.586 107.078C151.18 107.078 151.667 106.94 152.047 106.664C152.432 106.388 152.716 105.997 152.898 105.492C153.081 104.987 153.172 104.391 153.172 103.703C153.172 103.021 153.081 102.432 152.898 101.938C152.716 101.438 152.435 101.052 152.055 100.781C151.674 100.51 151.182 100.375 150.578 100.375C149.688 100.375 149.034 100.669 148.617 101.258C148.206 101.846 148 102.661 148 103.703ZM165.164 108H163.898V99.9062C163.898 99.599 163.898 99.3359 163.898 99.1172C163.904 98.8932 163.909 98.6901 163.914 98.5078C163.924 98.3203 163.938 98.1302 163.953 97.9375C163.792 98.1042 163.641 98.2474 163.5 98.3672C163.359 98.4818 163.185 98.625 162.977 98.7969L161.672 99.8438L160.992 98.9609L164.086 96.5781H165.164V108Z" fill="black"/>
</svg>
