<svg width="300" height="242" viewBox="0 0 300 242" fill="none" xmlns="http://www.w3.org/2000/svg">
<rect x="0.5" y="0.5" width="299" height="241" rx="9.5" fill="white" stroke="black"/>
<path d="M112.648 114.578C113.586 114.578 114.359 114.695 114.969 114.93C115.583 115.159 116.042 115.51 116.344 115.984C116.646 116.458 116.797 117.062 116.797 117.797C116.797 118.401 116.688 118.906 116.469 119.312C116.25 119.714 115.964 120.039 115.609 120.289C115.255 120.539 114.878 120.732 114.477 120.867L117.609 126H116.062L113.266 121.234H110.891V126H109.562V114.578H112.648ZM112.57 115.727H110.891V120.109H112.703C113.635 120.109 114.32 119.919 114.758 119.539C115.201 119.159 115.422 118.599 115.422 117.859C115.422 117.083 115.188 116.534 114.719 116.211C114.255 115.888 113.539 115.727 112.57 115.727ZM122.539 117.281C123.268 117.281 123.893 117.443 124.414 117.766C124.935 118.089 125.333 118.542 125.609 119.125C125.885 119.703 126.023 120.38 126.023 121.156V121.961H120.109C120.125 122.966 120.375 123.732 120.859 124.258C121.344 124.784 122.026 125.047 122.906 125.047C123.448 125.047 123.927 124.997 124.344 124.898C124.76 124.799 125.193 124.654 125.641 124.461V125.602C125.208 125.794 124.779 125.935 124.352 126.023C123.93 126.112 123.43 126.156 122.852 126.156C122.029 126.156 121.31 125.99 120.695 125.656C120.086 125.318 119.612 124.823 119.273 124.172C118.935 123.521 118.766 122.724 118.766 121.781C118.766 120.859 118.919 120.062 119.227 119.391C119.539 118.714 119.977 118.193 120.539 117.828C121.107 117.464 121.773 117.281 122.539 117.281ZM122.523 118.344C121.831 118.344 121.279 118.57 120.867 119.023C120.456 119.477 120.211 120.109 120.133 120.922H124.664C124.659 120.411 124.578 119.964 124.422 119.578C124.271 119.188 124.039 118.885 123.727 118.672C123.414 118.453 123.013 118.344 122.523 118.344ZM129.516 113.844V120.156C129.516 120.365 129.508 120.62 129.492 120.922C129.477 121.219 129.464 121.482 129.453 121.711H129.508C129.617 121.576 129.776 121.375 129.984 121.109C130.198 120.844 130.378 120.63 130.523 120.469L133.367 117.438H134.891L131.445 121.094L135.141 126H133.578L130.555 121.945L129.516 122.898V126H128.227V113.844H129.516ZM137.938 126H136.633V113.844H137.938V126ZM143.883 117.297C144.904 117.297 145.661 117.526 146.156 117.984C146.651 118.443 146.898 119.174 146.898 120.18V126H145.953L145.703 124.734H145.641C145.401 125.047 145.151 125.31 144.891 125.523C144.63 125.732 144.328 125.891 143.984 126C143.646 126.104 143.229 126.156 142.734 126.156C142.214 126.156 141.75 126.065 141.344 125.883C140.943 125.701 140.625 125.424 140.391 125.055C140.161 124.685 140.047 124.216 140.047 123.648C140.047 122.794 140.385 122.138 141.062 121.68C141.74 121.221 142.771 120.971 144.156 120.93L145.633 120.867V120.344C145.633 119.604 145.474 119.086 145.156 118.789C144.839 118.492 144.391 118.344 143.812 118.344C143.365 118.344 142.938 118.409 142.531 118.539C142.125 118.669 141.74 118.823 141.375 119L140.977 118.016C141.362 117.818 141.805 117.648 142.305 117.508C142.805 117.367 143.331 117.297 143.883 117.297ZM145.617 121.781L144.312 121.836C143.245 121.878 142.492 122.052 142.055 122.359C141.617 122.667 141.398 123.102 141.398 123.664C141.398 124.154 141.547 124.516 141.844 124.75C142.141 124.984 142.534 125.102 143.023 125.102C143.784 125.102 144.406 124.891 144.891 124.469C145.375 124.047 145.617 123.414 145.617 122.57V121.781ZM158.867 117.281C159.81 117.281 160.521 117.529 161 118.023C161.479 118.513 161.719 119.302 161.719 120.391V126H160.438V120.453C160.438 119.76 160.286 119.242 159.984 118.898C159.688 118.549 159.245 118.375 158.656 118.375C157.828 118.375 157.227 118.615 156.852 119.094C156.477 119.573 156.289 120.279 156.289 121.211V126H155V120.453C155 119.99 154.932 119.604 154.797 119.297C154.667 118.99 154.469 118.76 154.203 118.609C153.943 118.453 153.612 118.375 153.211 118.375C152.643 118.375 152.188 118.492 151.844 118.727C151.5 118.961 151.25 119.31 151.094 119.773C150.943 120.232 150.867 120.797 150.867 121.469V126H149.57V117.438H150.617L150.812 118.648H150.883C151.055 118.352 151.271 118.102 151.531 117.898C151.792 117.695 152.083 117.542 152.406 117.438C152.729 117.333 153.073 117.281 153.438 117.281C154.089 117.281 154.633 117.404 155.07 117.648C155.513 117.888 155.833 118.255 156.031 118.75H156.102C156.383 118.255 156.768 117.888 157.258 117.648C157.747 117.404 158.284 117.281 158.867 117.281ZM172.789 126H171.523V117.906C171.523 117.599 171.523 117.336 171.523 117.117C171.529 116.893 171.534 116.69 171.539 116.508C171.549 116.32 171.562 116.13 171.578 115.938C171.417 116.104 171.266 116.247 171.125 116.367C170.984 116.482 170.81 116.625 170.602 116.797L169.297 117.844L168.617 116.961L171.711 114.578H172.789V126Z" fill="black"/>
</svg>
