<svg width="36" height="36" viewBox="0 0 36 36" fill="none" xmlns="http://www.w3.org/2000/svg">
<circle cx="18" cy="18" r="18" fill="#D9D9D9"/>
<path d="M23.06 20.0009C21.2 20.0009 19.64 21.3307 19.24 23.1005C18.29 22.6906 17.42 22.8006 16.76 23.0905C16.35 21.3107 14.79 20.0009 12.94 20.0009C10.77 20.0009 9 21.7907 9 24.0004C9 26.2102 10.77 28 12.94 28C15 28 16.68 26.3802 16.84 24.3204C17.18 24.0804 18.07 23.6305 19.16 24.3404C19.34 26.3902 21 28 23.06 28C25.23 28 27 26.2102 27 24.0004C27 21.7907 25.23 20.0009 23.06 20.0009ZM12.94 26.8601C11.38 26.8601 10.13 25.5803 10.13 24.0004C10.13 22.4206 11.39 21.1407 12.94 21.1407C14.5 21.1407 15.75 22.4206 15.75 24.0004C15.75 25.5803 14.5 26.8601 12.94 26.8601ZM23.06 26.8601C21.5 26.8601 20.25 25.5803 20.25 24.0004C20.25 22.4206 21.5 21.1407 23.06 21.1407C24.62 21.1407 25.88 22.4206 25.88 24.0004C25.88 25.5803 24.61 26.8601 23.06 26.8601ZM28 17.5011H8V19.001H28V17.5011ZM21.53 9.632C21.31 9.14205 20.75 8.88208 20.22 9.05206L18 9.79198L15.77 9.05206L15.72 9.04206C15.19 8.89208 14.63 9.17205 14.43 9.682L12 16.0013H24L21.56 9.682L21.53 9.632Z" fill="black"/>
</svg>
