<svg width="20" height="20" viewBox="0 0 20 20" fill="none" xmlns="http://www.w3.org/2000/svg">
<path d="M15.06 11.5009C13.2 11.5009 11.64 12.8307 11.24 14.6005C10.29 14.1906 9.42 14.3006 8.76 14.5905C8.35 12.8107 6.79 11.5009 4.94 11.5009C2.77 11.5009 1 13.2907 1 15.5004C1 17.7102 2.77 19.5 4.94 19.5C7 19.5 8.68 17.8802 8.84 15.8204C9.18 15.5804 10.07 15.1305 11.16 15.8404C11.34 17.8902 13 19.5 15.06 19.5C17.23 19.5 19 17.7102 19 15.5004C19 13.2907 17.23 11.5009 15.06 11.5009ZM4.94 18.3601C3.38 18.3601 2.13 17.0803 2.13 15.5004C2.13 13.9206 3.39 12.6407 4.94 12.6407C6.5 12.6407 7.75 13.9206 7.75 15.5004C7.75 17.0803 6.5 18.3601 4.94 18.3601ZM15.06 18.3601C13.5 18.3601 12.25 17.0803 12.25 15.5004C12.25 13.9206 13.5 12.6407 15.06 12.6407C16.62 12.6407 17.88 13.9206 17.88 15.5004C17.88 17.0803 16.61 18.3601 15.06 18.3601ZM20 9.00114H0V10.501H20V9.00114ZM13.53 1.132C13.31 0.642054 12.75 0.382082 12.22 0.552064L10 1.29198L7.77 0.552064L7.72 0.542065C7.19 0.392081 6.63 0.672051 6.43 1.182L4 7.50131H16L13.56 1.182L13.53 1.132Z" fill="black"/>
</svg>
