<svg width="24" height="24" viewBox="0 0 24 24" fill="none" xmlns="http://www.w3.org/2000/svg">
<g clip-path="url(#clip0_149_2259)">
<path d="M24 18.7139V23.5139C24 23.8019 23.808 23.9939 23.52 23.9939H18.72C18.432 23.9939 18.24 23.8019 18.24 23.5139V18.7139C18.24 18.4259 18.432 18.2339 18.72 18.2339H20.64V16.3139H12.48V18.2339H14.4C14.688 18.2339 14.88 18.4259 14.88 18.7139V23.5139C14.88 23.8019 14.688 23.9939 14.4 23.9939H9.6C9.312 23.9939 9.12 23.8019 9.12 23.5139V18.7139C9.12 18.4259 9.312 18.2339 9.6 18.2339H11.52V16.3139H3.36V18.2339H5.28C5.568 18.2339 5.76 18.4259 5.76 18.7139V23.5139C5.76 23.8019 5.568 23.9939 5.28 23.9939H0.48C0.192 23.9939 0 23.8019 0 23.5139V18.7139C0 18.4259 0.192 18.2339 0.48 18.2339H2.4V15.8339C2.4 15.5459 2.592 15.3539 2.88 15.3539H11.52V13.9139H12.48V15.3539H21.12C21.408 15.3539 21.6 15.5459 21.6 15.8339V18.2339H23.52C23.808 18.2339 24 18.4259 24 18.7139ZM10.08 23.0339H13.92V19.1939H10.08V23.0339ZM0.96 23.0339H4.8V19.1939H0.96V23.0339ZM19.2 23.0339H23.04V19.1939H19.2V23.0339ZM6.24 9.64186V3.54586C6.24 3.35386 6.336 3.20986 6.48 3.11386L11.76 0.0418594C11.9164 -0.00614063 12.0836 -0.00614063 12.24 0.0418594L17.52 3.11386C17.664 3.20986 17.76 3.35386 17.76 3.54586V9.64186C17.76 9.78586 17.664 9.92986 17.52 10.0259L12.24 13.0979C12.176 13.1299 12.096 13.1459 12 13.1459C11.904 13.1459 11.824 13.1299 11.76 13.0979L6.48 10.0259C6.336 9.92986 6.24 9.78586 6.24 9.64186ZM16.8 9.35386V4.36186L12.48 6.85786V11.8499L16.8 9.35386ZM7.2 9.35386L11.52 11.8499V6.85786L7.2 4.36186V9.35386ZM7.68 3.54586L12 5.99386L16.32 3.54586L12 1.04986L7.68 3.54586Z" fill="black"/>
</g>
<defs>
<clipPath id="clip0_149_2259">
<rect width="24" height="24" fill="white"/>
</clipPath>
</defs>
</svg>
