<svg width="64" height="64" viewBox="0 0 64 64" fill="none" xmlns="http://www.w3.org/2000/svg">
<circle cx="32" cy="32" r="32" fill="#D9D9D9"/>
<path d="M47.4373 44.5998C45.1528 40.6503 41.6323 37.8183 37.5238 36.4758C39.5561 35.266 41.135 33.4226 42.0182 31.2285C42.9013 29.0345 43.0398 26.6112 42.4124 24.3309C41.785 22.0505 40.4265 20.0391 38.5453 18.6056C36.6641 17.1721 34.3644 16.3958 31.9993 16.3958C29.6342 16.3958 27.3345 17.1721 25.4534 18.6056C23.5722 20.0391 22.2136 22.0505 21.5862 24.3309C20.9589 26.6112 21.0974 29.0345 21.9805 31.2285C22.8637 33.4226 24.4426 35.266 26.4748 36.4758C22.3663 37.8168 18.8458 40.6488 16.5613 44.5998C16.4776 44.7364 16.422 44.8884 16.3979 45.0469C16.3738 45.2053 16.3817 45.3669 16.4211 45.5223C16.4605 45.6776 16.5306 45.8234 16.6273 45.9512C16.724 46.079 16.8453 46.1862 16.9841 46.2663C17.1228 46.3465 17.2762 46.398 17.4352 46.4179C17.5942 46.4378 17.7556 46.4257 17.9099 46.3822C18.0641 46.3387 18.2081 46.2648 18.3333 46.1648C18.4585 46.0647 18.5624 45.9407 18.6388 45.7998C21.4648 40.9158 26.4598 37.9998 31.9993 37.9998C37.5388 37.9998 42.5338 40.9158 45.3598 45.7998C45.4363 45.9407 45.5402 46.0647 45.6654 46.1648C45.7906 46.2648 45.9346 46.3387 46.0888 46.3822C46.243 46.4257 46.4044 46.4378 46.5634 46.4179C46.7224 46.398 46.8758 46.3465 47.0146 46.2663C47.1534 46.1862 47.2747 46.079 47.3713 45.9512C47.468 45.8234 47.5381 45.6776 47.5775 45.5223C47.6169 45.3669 47.6248 45.2053 47.6008 45.0469C47.5767 44.8884 47.5211 44.7364 47.4373 44.5998ZM23.5993 27.1998C23.5993 25.5385 24.092 23.9144 25.015 22.533C25.938 21.1517 27.2499 20.075 28.7848 19.4392C30.3197 18.8035 32.0087 18.6371 33.6381 18.9612C35.2675 19.2854 36.7643 20.0854 37.939 21.2601C39.1138 22.4349 39.9138 23.9316 40.2379 25.5611C40.562 27.1905 40.3957 28.8795 39.7599 30.4144C39.1241 31.9493 38.0475 33.2612 36.6661 34.1842C35.2847 35.1072 33.6607 35.5998 31.9993 35.5998C29.7722 35.5975 27.6371 34.7117 26.0623 33.1369C24.4875 31.5621 23.6017 29.4269 23.5993 27.1998Z" fill="black"/>
</svg>
