<svg width="24" height="24" viewBox="0 0 24 24" fill="none" xmlns="http://www.w3.org/2000/svg">
<path d="M5 9V21H1V9L5 9ZM9 21C8.46957 21 7.96086 20.7893 7.58579 20.4142C7.21071 20.0391 7 19.5304 7 19L7 9C7 8.45 7.22 7.95 7.59 7.59L14.17 1L15.23 2.06C15.5 2.33 15.67 2.7 15.67 3.12L15.64 3.43L14.69 8L21 8C21.5304 8 22.0391 8.21071 22.4142 8.58579C22.7893 8.96086 23 9.46957 23 10V12C23 12.26 22.95 12.5 22.86 12.73L19.84 19.78C19.54 20.5 18.83 21 18 21H9ZM9 19H18.03L21 12V10L12.22 10L13.35 4.68L9 9.03L9 19Z" fill="#0057FF"/>
<path d="M9 10V8L10.5 7L13.5 4.5L13 9L21 10L21.5 12L21 14L18 19.5H13.5L9 19V10Z" fill="#0057FF"/>
</svg>
