<svg width="25" height="24" viewBox="0 0 25 24" fill="none" xmlns="http://www.w3.org/2000/svg">
<path d="M12.5 21C14.28 21 16.0201 20.4722 17.5001 19.4832C18.9802 18.4943 20.1337 17.0887 20.8149 15.4442C21.4961 13.7996 21.6743 11.99 21.3271 10.2442C20.9798 8.49836 20.1226 6.89471 18.864 5.63604C17.6053 4.37737 16.0016 3.5202 14.2558 3.17293C12.51 2.82567 10.7004 3.0039 9.05585 3.68508C7.41131 4.36627 6.00571 5.51983 5.01677 6.99987C4.02784 8.47991 3.5 10.22 3.5 12C3.5 13.488 3.86 14.891 4.5 16.127L3.5 21L8.373 20C9.609 20.64 11.013 21 12.5 21Z" stroke="black" stroke-width="2.5" stroke-linecap="round" stroke-linejoin="round"/>
</svg>
