<svg width="24" height="24" viewBox="0 0 24 24" fill="none" xmlns="http://www.w3.org/2000/svg">
<path d="M0 2.66673C0 2.3573 0.118519 2.06054 0.329484 1.84173C0.54045 1.62293 0.82658 1.50001 1.12493 1.50001H7.50403C9.34442 1.50001 10.9793 2.41783 12.0038 3.83501C12.5274 3.10895 13.2073 2.51976 13.9893 2.11437C14.7713 1.70899 15.6337 1.49861 16.508 1.50001H22.8751C23.1734 1.50001 23.4596 1.62293 23.6705 1.84173C23.8815 2.06054 24 2.3573 24 2.66673V19.0009C24 19.3103 23.8815 19.6071 23.6705 19.8259C23.4596 20.0447 23.1734 20.1676 22.8751 20.1676H16.115C15.6718 20.1676 15.233 20.2581 14.8235 20.434C14.4141 20.6099 14.042 20.8677 13.7286 21.1927L12.7957 22.1588C12.5848 22.3773 12.2989 22.5 12.0008 22.5C11.7026 22.5 11.4167 22.3773 11.2058 22.1588L10.2729 21.1927C9.95948 20.8677 9.58744 20.6099 9.17799 20.434C8.76854 20.2581 8.32969 20.1676 7.88651 20.1676H1.12493C0.82658 20.1676 0.54045 20.0447 0.329484 19.8259C0.118519 19.6071 0 19.3103 0 19.0009L0 2.66673ZM10.8758 18.7271L10.8818 10.8353L10.8788 7.33051C10.878 6.40275 10.5221 5.51327 9.88931 4.85753C9.2565 4.20179 8.39856 3.83345 7.50403 3.83345H2.24986V17.8341H7.88501C8.94308 17.8341 9.9797 18.1436 10.8758 18.7271ZM13.1317 7.33362L13.1257 18.724C14.0213 18.1423 15.0568 17.8339 16.1135 17.8341H21.7486V3.83345H16.5065C15.6114 3.83345 14.753 4.20222 14.1201 4.85863C13.4872 5.51504 13.1317 6.40532 13.1317 7.33362Z" fill="black"/>
</svg>
