<svg width="24" height="24" viewBox="0 0 24 24" fill="none" xmlns="http://www.w3.org/2000/svg">
<path d="M9.61 16.11C9.61 14.03 10.59 12.19 12.1 11H5L6.5 6.5H17.5L18.72 10.16C19.56 10.53 20.3 11.07 20.91 11.74L18.92 6C18.72 5.42 18.16 5 17.5 5H6.5C5.84 5 5.28 5.42 5.08 6L3 12V20C3 20.55 3.45 21 4 21H5C5.55 21 6 20.55 6 20V19H10.29C9.86 18.13 9.61 17.15 9.61 16.11ZM6.5 16C5.67 16 5 15.33 5 14.5C5 13.67 5.67 13 6.5 13C7.33 13 8 13.67 8 14.5C8 15.33 7.33 16 6.5 16ZM16.11 11.61C18.61 11.61 20.61 13.61 20.61 16.11C20.61 17 20.36 17.82 19.92 18.5L23 21.61L21.61 23L18.5 19.93C17.8 20.36 17 20.61 16.11 20.61C13.61 20.61 11.61 18.61 11.61 16.11C11.61 13.61 13.61 11.61 16.11 11.61ZM16.11 13.61C15.6155 13.61 15.1322 13.7566 14.7211 14.0313C14.31 14.306 13.9895 14.6965 13.8003 15.1533C13.6111 15.6101 13.5616 16.1128 13.658 16.5977C13.7545 17.0827 13.9926 17.5281 14.3422 17.8778C14.6919 18.2274 15.1373 18.4655 15.6223 18.562C16.1072 18.6584 16.6099 18.6089 17.0667 18.4197C17.5235 18.2305 17.914 17.91 18.1887 17.4989C18.4634 17.0878 18.61 16.6045 18.61 16.11C18.61 14.72 17.5 13.61 16.11 13.61Z" fill="black"/>
</svg>
