<svg width="24" height="24" viewBox="0 0 24 24" fill="none" xmlns="http://www.w3.org/2000/svg">
<path d="M7.28578 8.14293C8.13827 8.14293 8.95583 7.80428 9.55863 7.20148C10.1614 6.59869 10.5001 5.78112 10.5001 4.92864C10.5001 4.07616 10.1614 3.25859 9.55863 2.6558C8.95583 2.053 8.13827 1.71436 7.28578 1.71436C6.4333 1.71436 5.61574 2.053 5.01294 2.6558C4.41015 3.25859 4.0715 4.07616 4.0715 4.92864C4.0715 5.78112 4.41015 6.59869 5.01294 7.20148C5.61574 7.80428 6.4333 8.14293 7.28578 8.14293ZM1.71436 11.1275C1.71436 10.1889 2.47464 9.42864 3.41321 9.42864H8.21321C7.83756 10.3764 7.83114 11.4306 8.19522 12.3828C8.5593 13.3351 9.26738 14.1161 10.1795 14.5715H8.12836C7.62181 14.5715 7.1267 14.722 6.70582 15.0039C6.28494 15.2857 5.95726 15.6863 5.76436 16.1546C4.04578 15.8366 3.0155 14.9786 2.42664 14.0204C1.71436 12.8658 1.71436 11.6726 1.71436 11.4669V11.1275ZM13.8198 14.5715H15.8726C16.9398 14.5715 17.8544 15.2255 18.2366 16.1546C19.9552 15.8366 20.9855 14.9786 21.5744 14.0204C22.2858 12.8649 22.2858 11.6718 22.2858 11.4661V11.1275C22.2858 10.6769 22.1068 10.2448 21.7882 9.92622C21.4696 9.60763 21.0375 9.42864 20.5869 9.42864H15.7869C16.1626 10.3764 16.169 11.4306 15.8049 12.3828C15.4408 13.3351 14.7328 14.1161 13.8206 14.5715H13.8198ZM19.9286 4.92864C19.9286 5.78112 19.59 6.59869 18.9872 7.20148C18.3844 7.80428 17.5668 8.14293 16.7144 8.14293C15.8619 8.14293 15.0443 7.80428 14.4415 7.20148C13.8387 6.59869 13.5001 5.78112 13.5001 4.92864C13.5001 4.07616 13.8387 3.25859 14.4415 2.6558C15.0443 2.053 15.8619 1.71436 16.7144 1.71436C17.5668 1.71436 18.3844 2.053 18.9872 2.6558C19.59 3.25859 19.9286 4.07616 19.9286 4.92864ZM6.42864 17.1275C6.42864 16.1889 7.18893 15.4286 8.1275 15.4286H15.8726C16.8112 15.4286 17.5715 16.1889 17.5715 17.1275V17.4661C17.5715 17.6718 17.5715 18.8649 16.8601 20.0204C16.1144 21.2341 14.6624 22.2858 12.0001 22.2858C9.33778 22.2858 7.88578 21.2332 7.14007 20.0212C6.42864 18.8649 6.42864 17.6726 6.42864 17.4661V17.1275ZM12.0001 14.1429C12.8526 14.1429 13.6701 13.8043 14.2729 13.2015C14.8757 12.5987 15.2144 11.7811 15.2144 10.9286C15.2144 10.0762 14.8757 9.25859 14.2729 8.6558C13.6701 8.053 12.8526 7.71436 12.0001 7.71436C11.1476 7.71436 10.33 8.053 9.72723 8.6558C9.12443 9.25859 8.78578 10.0762 8.78578 10.9286C8.78578 11.7811 9.12443 12.5987 9.72723 13.2015C10.33 13.8043 11.1476 14.1429 12.0001 14.1429Z" fill="black"/>
</svg>
