<svg width="32" height="32" viewBox="0 0 32 32" fill="none" xmlns="http://www.w3.org/2000/svg">
<circle cx="16" cy="16" r="16" fill="#D9D9D9"/>
<path d="M23.7189 22.3003C22.5767 20.3255 20.8164 18.9095 18.7622 18.2383C19.7783 17.6334 20.5677 16.7116 21.0093 15.6146C21.4509 14.5176 21.5201 13.306 21.2065 12.1658C20.8928 11.0256 20.2135 10.0199 19.2729 9.30318C18.3323 8.58642 17.1825 8.19824 15.9999 8.19824C14.8174 8.19824 13.6675 8.58642 12.7269 9.30318C11.7864 10.0199 11.1071 11.0256 10.7934 12.1658C10.4797 13.306 10.5489 14.5176 10.9905 15.6146C11.4321 16.7116 12.2215 17.6334 13.2377 18.2383C11.1834 18.9088 9.42316 20.3248 8.28091 22.3003C8.23902 22.3686 8.21124 22.4446 8.1992 22.5238C8.18716 22.603 8.1911 22.6838 8.2108 22.7615C8.2305 22.8392 8.26556 22.9121 8.3139 22.976C8.36225 23.0399 8.4229 23.0934 8.49228 23.1335C8.56166 23.1736 8.63836 23.1994 8.71787 23.2093C8.79737 23.2193 8.87806 23.2132 8.95518 23.1915C9.03229 23.1697 9.10428 23.1328 9.16688 23.0827C9.22948 23.0327 9.28143 22.9707 9.31966 22.9003C10.7327 20.4583 13.2302 19.0003 15.9999 19.0003C18.7697 19.0003 21.2672 20.4583 22.6802 22.9003C22.7184 22.9707 22.7703 23.0327 22.8329 23.0827C22.8955 23.1328 22.9675 23.1697 23.0446 23.1915C23.1218 23.2132 23.2025 23.2193 23.282 23.2093C23.3615 23.1994 23.4382 23.1736 23.5075 23.1335C23.5769 23.0934 23.6376 23.0399 23.6859 22.976C23.7343 22.9121 23.7693 22.8392 23.789 22.7615C23.8087 22.6838 23.8127 22.603 23.8006 22.5238C23.7886 22.4446 23.7608 22.3686 23.7189 22.3003ZM11.7999 13.6003C11.7999 12.7696 12.0462 11.9576 12.5077 11.2669C12.9692 10.5762 13.6252 10.0379 14.3926 9.71999C15.1601 9.4021 16.0046 9.31893 16.8193 9.48098C17.634 9.64304 18.3824 10.0431 18.9698 10.6304C19.5571 11.2178 19.9572 11.9662 20.1192 12.7809C20.2813 13.5956 20.1981 14.4401 19.8802 15.2076C19.5623 15.975 19.024 16.631 18.3333 17.0925C17.6426 17.554 16.8306 17.8003 15.9999 17.8003C14.8864 17.7991 13.8188 17.3562 13.0314 16.5688C12.244 15.7814 11.8011 14.7138 11.7999 13.6003Z" fill="black"/>
</svg>
